<svg width="112" height="56" viewBox="0 0 112 56" fill="none" xmlns="http://www.w3.org/2000/svg">
<rect width="112" height="56" fill="#F5F5F5"/>
<g id="Desktop - 69" clip-path="url(#clip0_33_857)">
<rect width="1440" height="4868" transform="translate(-1111 -912)" fill="#FAF7F7"/>
<rect id="Rectangle 1160" x="-1111" y="-832" width="1440" height="936" fill="#FAF7F7"/>
<rect id="Rectangle 1211" x="-1111" y="-56" width="1440" height="160" fill="white"/>
<g id="bloomberg-ar21 1" opacity="0.5">
<path id="Vector" d="M9.33301 19.3857H16.1678C17.4539 19.3857 18.4591 19.7077 19.1545 20.2705C19.9385 20.9239 20.3809 21.8787 20.3809 23.0239C20.3809 24.3492 19.8377 25.1948 18.7326 25.6979V25.7585C20.1793 26.2411 21.0043 27.5272 21.0043 29.0952C21.0043 30.5829 20.4415 31.7487 19.497 32.4524C18.713 33.0152 17.6677 33.2971 16.3003 33.2971H9.34514V19.3857H9.33301ZM15.493 24.8336C16.2369 24.8336 16.7595 24.4323 16.7595 23.6072C16.7595 22.8232 16.1967 22.4219 15.4734 22.4219H13.1214V24.814H15.4921L15.493 24.8336ZM15.8346 30.2208C16.6587 30.2208 17.2813 29.7187 17.2813 28.7928C17.2813 27.8278 16.6279 27.3648 15.8141 27.3648H13.1205V30.2189L15.8346 30.2208ZM21.6847 19.3941H25.2631V33.3251H21.6847V19.3941Z" fill="#5462D1"/>
<path id="Vector_2" d="M25.9775 28.3518C25.9775 25.2158 28.0075 23.085 31.1435 23.085C34.2795 23.085 36.2694 25.2158 36.2694 28.3518C36.2694 31.5064 34.2795 33.6186 31.1435 33.6186C28.0075 33.6186 25.9775 31.5092 25.9775 28.3518ZM32.7321 28.3518C32.7321 26.6232 32.1693 25.5172 31.1034 25.5172C30.0375 25.5172 29.5167 26.6027 29.5167 28.3518C29.5167 30.1008 30.0394 31.1863 31.1034 31.1863C32.1693 31.2068 32.7321 30.1204 32.7321 28.3518Z" fill="#5462D1"/>
<path id="Vector_3" d="M36.7119 28.3518C36.7119 25.2158 38.7419 23.085 41.8779 23.085C45.0139 23.085 47.0038 25.2158 47.0038 28.3518C47.0038 31.5064 45.0139 33.6186 41.8779 33.6186C38.7419 33.6186 36.7119 31.5092 36.7119 28.3518ZM43.4664 28.3518C43.4664 26.6232 42.9036 25.5172 41.8378 25.5172C40.7719 25.5172 40.2511 26.6027 40.2511 28.3518C40.2511 30.1008 40.7738 31.1863 41.8378 31.1863C42.9036 31.2068 43.4664 30.1204 43.4664 28.3518Z" fill="#5462D1"/>
<path id="Vector_4" d="M47.7275 23.3665H51.053V24.8542H51.1137C51.767 23.6875 52.6817 23.065 54.1003 23.065C55.3463 23.065 56.2918 23.6885 56.7743 24.773H56.835C57.6395 23.4663 58.7045 23.065 59.9103 23.065C62.2222 23.065 63.2069 24.773 63.2069 27.0447V33.3167H59.7087V27.6887C59.7087 26.6639 59.3867 26.0087 58.5029 26.0087C57.6386 26.0087 57.1962 26.8133 57.1962 27.8987V33.3261H53.7382V27.6981C53.7382 26.6733 53.4162 26.0181 52.5323 26.0181C51.6681 26.0181 51.2257 26.8226 51.2257 27.9081V33.3354H47.7275V23.3861V23.3665ZM67.629 32.0091H67.5889V33.2953H64.2718V19.3662H67.7597V24.3913H67.8203C68.4737 23.527 69.3678 23.0659 70.6549 23.0659C73.1469 23.0659 74.5935 25.3171 74.5935 28.3113C74.5935 31.6881 73.0255 33.6387 70.4327 33.6387C69.3267 33.6387 68.2207 33.1161 67.6187 32.0101L67.629 32.0091ZM71.0263 28.2907C71.0263 26.6826 70.443 25.6587 69.3781 25.6587C68.3131 25.6587 67.629 26.6835 67.629 28.2907C67.629 29.8774 68.3122 30.9227 69.3781 30.9227C70.4439 30.9227 71.0263 29.8979 71.0263 28.2907ZM74.9855 28.3113C74.9855 25.2154 77.0361 23.0445 80.0106 23.0445C81.4983 23.0445 82.6239 23.5065 83.5087 24.3306C84.6549 25.4366 85.1775 27.1847 85.1374 29.2157H78.4641C78.6041 30.4617 79.2079 31.0851 80.2533 31.0851C80.8562 31.0851 81.3994 30.8033 81.6206 30.1406H84.9778C84.3945 32.4123 82.6258 33.5566 80.1245 33.5566C77.0491 33.5771 74.9781 31.5061 74.9781 28.3113H74.9855ZM78.4631 27.2865H81.6393C81.5786 26.0806 80.9159 25.4571 80.0918 25.4571C79.1267 25.4571 78.6041 26.1403 78.4631 27.2865ZM89.0975 25.0745H89.1582C89.8815 23.6875 90.827 23.1649 92.0123 23.1649C92.2942 23.1649 92.4743 23.205 92.5751 23.2657V26.3214H92.4949C90.4443 25.9593 89.2282 26.9243 89.2282 29.1755V33.3167H85.7301V23.3861H89.0471V25.0661L89.0975 25.0745Z" fill="#5462D1"/>
<path id="Vector_5" d="M92.979 33.3171H96.3362C96.4575 33.739 96.899 34.1618 97.7437 34.1618C98.8693 34.1618 99.251 33.4581 99.251 32.4333V31.7099H99.1707C98.6079 32.3633 97.8846 32.8356 96.7786 32.8356C94.6273 32.8356 92.7783 31.2489 92.7783 28.1521C92.7783 25.2979 94.3062 23.0859 96.6181 23.0859C97.9434 23.0859 98.7694 23.6291 99.2921 24.4729H99.3527V23.3874H102.667V31.9909C102.667 33.5776 102.104 34.8254 101.28 35.5487C100.416 36.3327 99.1707 36.6342 97.7614 36.6342C95.1481 36.6342 93.3001 35.5487 92.9771 33.3171H92.979ZM99.391 27.9691C99.391 26.7231 98.8077 25.7291 97.7829 25.7291C96.7982 25.7291 96.1747 26.6139 96.1747 27.9691C96.1747 29.2945 96.7982 30.2605 97.7829 30.2605C98.8077 30.2605 99.391 29.2758 99.391 27.9691Z" fill="#5462D1"/>
</g>
</g>
<defs>
<clipPath id="clip0_33_857">
<rect width="1440" height="4868" fill="white" transform="translate(-1111 -912)"/>
</clipPath>
</defs>
</svg>
