<svg width="112" height="56" viewBox="0 0 112 56" fill="none" xmlns="http://www.w3.org/2000/svg">
<g opacity="0.5">
<path d="M11.4758 22.7549C9.73046 24.336 9.09392 27.9162 12.2411 30.0116L24.7991 38.6262L18.7101 24.6766C17.4342 21.3848 13.9435 20.667 11.4749 22.754" fill="#5462D1"/>
<path d="M22.2863 15.9718C20.2451 16.0138 17.181 18.4452 18.553 22.1561L24.8511 37.0082L27.0631 21.3861C27.5764 17.5034 24.6364 15.7114 22.3031 15.9709" fill="#5462D1"/>
<path d="M28.0363 20.7915H29.2272C29.2272 20.7915 29.8619 20.7915 29.9496 21.0902C29.4811 21.4635 28.2043 21.5195 28.3751 23.5654L30.3771 37.0054L36.6304 22.1141C37.9091 18.7895 35.2248 16.0119 32.8411 15.9261L32.5023 15.9111C30.3556 15.9111 27.914 17.4651 28.0335 20.7878" fill="#5462D1"/>
<path d="M36.3803 24.8035L30.4648 38.586L43.0182 29.9247C45.9115 27.8714 45.4448 24.5907 43.8255 22.9686C43.146 22.2051 41.8991 21.6152 40.5775 21.6152C39.017 21.6152 37.3482 22.4431 36.3775 24.8035" fill="#5462D1"/>
<path d="M41.6141 31.886L29.8242 40.1217H44.3422C47.3289 40.1217 49.2348 37.0417 48.3836 34.2417C47.8236 32.4702 46.1277 31.0796 44.1705 31.0684C43.3464 31.0684 42.4709 31.3166 41.6141 31.886Z" fill="#5462D1"/>
<path d="M11.1373 40.121H25.4406L13.6479 31.8852C10.9226 30.1343 7.86128 31.1591 6.75435 34.0636C5.81728 37.3891 8.15715 40.1303 11.1382 40.1303" fill="#5462D1"/>
<path d="M50.9863 27.9571C50.9863 29.7351 52.4405 32.9719 57.991 32.9719C63.1085 32.9719 64.725 30.6237 64.725 29.5466H60.763C60.763 29.5466 60.5745 30.9681 58.341 30.9681C56.1075 30.9681 55.4999 29.1014 55.4999 28.0215C55.4999 26.9417 56.1047 25.1805 58.341 25.1805C60.5773 25.1805 60.7639 26.419 60.7639 26.419H64.725C64.725 25.341 63.5397 23.0254 57.991 23.0254C52.4423 23.0254 50.9863 26.4731 50.9863 27.9553M92.5402 27.9562C92.5402 29.7342 93.9962 32.971 99.5449 32.971C104.662 32.971 106.279 30.6227 106.279 29.5457H102.32C102.32 29.5457 102.13 30.9681 99.8949 30.9681C97.6595 30.9681 97.0529 29.1014 97.0529 28.0215C97.0529 26.9417 97.6595 25.1805 99.8949 25.1805C102.13 25.1805 102.32 26.419 102.32 26.419H106.279C106.279 25.341 105.094 23.0254 99.5449 23.0254C93.9962 23.0254 92.5402 26.4741 92.5402 27.9562ZM75.5554 23.2027V29.2227L70.9447 23.2027H65.7573V32.7377H69.3039V26.6486L73.8343 32.7377H79.1021V23.2027H75.5554ZM86.9421 30.451V30.4631H83.989V28.7122H86.9523V28.7094C87.5851 28.7094 88.0966 29.0986 88.0966 29.5774C88.0966 30.0562 87.5851 30.4426 86.9523 30.4426M84.017 25.0293H86.873V25.033C87.3565 25.033 87.7503 25.3503 87.7503 25.7423C87.7503 26.1343 87.3583 26.4517 86.873 26.4517V26.4563H84.0077L84.017 25.0293ZM89.8625 27.6407C90.5102 27.6407 91.8635 26.8894 91.8635 25.4334C91.8635 23.3614 88.0033 23.1747 87.4115 23.1747H80.2995V32.7097H87.4115C90.8322 32.7097 92.207 31.6289 92.207 29.8238C92.207 28.0187 89.8737 27.6398 89.8737 27.6398L89.8625 27.6407Z" fill="#5462D1"/>
</g>
</svg>
