<svg width="112" height="56" viewBox="0 0 112 56" fill="none" xmlns="http://www.w3.org/2000/svg">
<g opacity="0.5">
<path fill-rule="evenodd" clip-rule="evenodd" d="M10.2656 11.5525V19.1308H14.4927V36.8008H10.2656V43.8459H32.7339V36.8008H28.5068V19.1308H32.7339V11.5525H10.2656ZM33.9145 22.6534V26.176H37.0753V36.8008H33.9145V43.8459H51.4702V36.8008H48.1152L48.1304 33.4001C48.1419 30.3916 48.1533 29.9727 48.2066 29.7442C48.6598 27.8934 49.8746 26.6977 51.7063 26.3054C52.1709 26.2026 53.222 26.2102 53.717 26.3169C55.0118 26.5949 55.8458 27.3336 56.1657 28.4799L56.2495 28.7846L56.2723 36.8008H52.9935V43.8459H70.1684V36.9341L70.4388 37.4482C71.6879 39.8435 73.8776 41.7552 76.7566 42.9586C79.3347 44.0402 82.5184 44.5619 85.7058 44.4248C87.2062 44.36 88.2154 44.2458 89.3426 44.0135C92.7662 43.3052 95.2796 41.6867 96.7876 39.2228C97.5607 37.9509 98.2271 35.9439 98.2347 34.8472V34.7444H88.7904V34.9652C88.7904 35.2889 88.6838 35.864 88.5581 36.2067C88.1469 37.3416 87.2748 38.088 85.9762 38.4269C85.5306 38.5449 84.5215 38.5906 83.9845 38.5183C83.2838 38.4269 82.6098 38.1717 82.1604 37.8366C81.9167 37.6576 81.5397 37.2692 81.3759 37.0293C80.9532 36.4047 80.6562 35.506 80.5114 34.4016C80.3096 32.8936 80.3553 30.0793 80.6028 28.7465C80.7095 28.1714 80.9227 27.5355 81.1512 27.1051C81.6653 26.1379 82.4193 25.5743 83.5466 25.3077C83.9274 25.2201 84.0492 25.2087 84.7157 25.2087C85.3707 25.2049 85.4964 25.2163 85.801 25.2925C87.5452 25.7418 88.3792 27.1432 88.6076 30.0032C88.6305 30.3154 88.6533 30.5782 88.661 30.5858C88.6648 30.5973 89.7158 30.483 95.8089 29.8128L98.09 29.5652C98.1586 29.5652 97.9758 28.419 97.7778 27.6231C96.7724 23.6092 93.8096 20.8711 89.2855 19.782C87.5718 19.3669 85.9038 19.226 83.8588 19.3174C82.0614 19.3974 80.7856 19.5764 79.289 19.9572C74.8715 21.073 71.646 23.5331 70.1494 26.9185C69.2544 28.9483 68.9498 31.4122 69.2925 33.8114C69.4258 34.7101 69.7076 35.7612 70.0465 36.599L70.1303 36.8008H67.3123V31.8958C67.3123 27.0138 67.3008 26.5149 67.1752 25.757C66.6839 22.779 64.8217 20.7874 61.6952 19.8962C60.6632 19.603 59.6578 19.4545 58.3554 19.4012C55.3736 19.2831 52.9897 19.8163 51.0285 21.0425C50.1907 21.568 49.5852 22.0745 48.8045 22.8971L48.0352 23.7159L47.7763 23.9862V19.1308H33.9145V22.6534ZM100.71 36.0239C99.9027 36.1991 99.2858 36.5228 98.7032 37.0788C97.8577 37.8899 97.4236 38.9829 97.4845 40.1482C97.5835 42.0104 98.8898 43.4994 100.767 43.8878C101.06 43.9488 101.883 43.9488 102.176 43.8878C103.467 43.6213 104.48 42.8596 105.044 41.7324C105.824 40.1672 105.501 38.286 104.24 37.0788C103.65 36.5152 103.037 36.1953 102.214 36.0201C101.879 35.9478 101.045 35.9516 100.71 36.0239Z" fill="#5462D1"/>
</g>
</svg>
