<svg width="112" height="56" viewBox="0 0 112 56" fill="none" xmlns="http://www.w3.org/2000/svg">
<g opacity="0.5">
<path d="M81.5189 14.2123H102.25V19.6293H101.877L101.712 16.2917H88.1325V27.1249H99.6722L100.001 24.6077H100.494C100.329 26.9056 100.329 29.1493 100.494 31.4472H100.001L99.6722 28.8208H88.1231V40.0376H102.174L102.23 36.3173H102.669V41.8427H81.475V41.0773H84.2218V15.2511H81.475L81.5189 14.2123ZM52.1805 14.1562H54.0191L62.8391 35.3308L71.5378 14.1562H73.3326L78.2419 40.8571H80.7265V41.6784H70.933V40.8571H73.4829L70.3973 23.7864L62.6319 41.6784H60.853L53.1269 23.7864L49.8975 40.8571H52.2719L52.2159 41.6784H45.0535V40.8571H47.2534L52.1805 14.1562ZM34.4639 14.2123H43.885V14.9776H41.1783V40.8589H43.885V41.6803H34.4639V40.8589H37.1725V14.9776H34.4425L34.4639 14.2123ZM9.33861 14.2123H33.2973V19.6835H32.9239V16.1816H23.4767V40.8589H26.2301V41.6803H16.8277V40.8589H19.3551V16.1816H9.77167V19.6835H9.33301L9.33861 14.2123Z" fill="#5462D1"/>
</g>
</svg>
