<svg width="112" height="56" viewBox="0 0 112 56" fill="none" xmlns="http://www.w3.org/2000/svg">
<g opacity="0.5">
<path d="M24.0083 23.6791C23.7881 22.6786 23.6537 22.5255 23.3298 22.4406L23.0078 22.3472V22.1092H26.1811V22.3472L25.9263 22.3976C25.3831 22.5162 25.4345 23.051 25.5875 23.7976L26.9278 30.4486L27.9115 25.1547L27.5569 23.3394C27.4215 22.686 27.3702 22.4994 27.0314 22.406L26.8111 22.3556V22.1176H29.9163V22.3556L29.543 22.4238C28.983 22.5171 29.0763 23.1359 29.2042 23.7976L30.4941 30.4495L31.7662 24.1542C32.0042 22.8475 31.8847 22.5255 31.3761 22.4238L31.0195 22.3556V22.1176H33.3529V22.3556L33.0309 22.449C32.6239 22.5423 32.5222 22.8727 32.2842 24.0095L30.2141 33.8842H29.7726L28.1859 26.1814L26.7439 33.8842H26.1839L24.0083 23.6791ZM40.603 33.4791H41.2815C42.7235 33.4791 43.1482 31.7646 43.3162 29.9511H43.571V33.8188H34.891V33.5818L35.2457 33.5136C35.9755 33.3783 35.9755 33.1748 35.7889 32.1566L35.4678 30.6296H33.3809L33.1606 31.7842C32.9058 33.0908 33.0421 33.4128 33.5507 33.5146L33.9054 33.5827V33.8198H31.5478V33.5827L31.8278 33.4894C32.2945 33.354 32.4046 33.0824 32.6426 31.9279L34.7127 22.0532H35.2214L37.3933 32.2508C37.6135 33.3027 37.7153 33.523 38.3266 33.523C38.8521 33.523 39.0387 33.243 39.0387 32.7427V23.1704C39.0387 22.7038 38.8866 22.5423 38.5469 22.4574L38.1735 22.364V22.127H41.5335V22.3818L41.0669 22.4751C40.7281 22.5432 40.575 22.6954 40.575 23.1704L40.603 33.4791ZM33.4602 30.2376H35.3941L34.4103 25.4188L33.4602 30.2376ZM46.3551 33.4791H47.0337C48.4757 33.4791 48.9003 31.7646 49.0683 29.9511H49.3231V33.8188H43.9443V33.5818L44.3177 33.4884C44.6565 33.3951 44.8095 33.2336 44.8095 32.7586V23.1714C44.8095 22.7047 44.6574 22.5432 44.3177 22.4583L43.9443 22.365V22.127H47.3043V22.3818L46.8377 22.4751C46.4989 22.5432 46.3458 22.6954 46.3458 23.1704L46.3551 33.4791ZM54.8485 33.886C53.8647 33.886 53.525 33.2075 53.203 33.2075C53.0163 33.2075 52.7961 33.2579 52.6262 33.8179H52.4227V29.9418H52.6775C52.881 32.1304 53.7042 33.5043 54.8242 33.5043C55.5877 33.5043 56.1141 32.809 56.1141 31.5443C56.1141 28.8974 52.3303 27.7606 52.3303 24.8243C52.3303 23.2376 53.1451 22.043 54.5871 22.043C55.5205 22.043 55.7239 22.6534 56.1141 22.6534C56.3343 22.6534 56.4874 22.4835 56.5807 22.1102H56.7842V25.9788H56.5294C56.3259 24.0188 55.7995 22.4154 54.5694 22.4154C53.7294 22.4154 53.5427 23.2554 53.5427 23.8406C53.5427 26.3606 57.3265 27.2342 57.3265 30.7631C57.3255 32.5626 56.3418 33.8683 54.8317 33.8683L54.8485 33.886ZM61.1018 32.7492C61.1018 33.2159 61.2539 33.4026 61.5937 33.4791L62.0351 33.5724V33.8095H58.6145V33.5724L59.0559 33.4791C59.3947 33.3858 59.5478 33.2243 59.5478 32.7492V22.4583H59.1745C58.1226 22.4583 57.6979 24.1719 57.5878 25.9863H57.333V22.1204H63.3231V25.9891H63.0683C62.9498 24.1738 62.5251 22.4611 61.4817 22.4611H61.1083V32.7418L61.1018 32.7492ZM63.6965 33.5892L64.0698 33.4959C64.4086 33.4026 64.5617 33.2411 64.5617 32.766V23.19C64.5617 22.7234 64.4095 22.5619 64.0698 22.477L63.6965 22.3836V22.1456H66.937C68.379 22.1456 69.7183 23.0622 69.7183 24.9792C69.7183 26.4558 69.023 27.4992 67.6146 27.8726C69.1583 28.1526 69.1583 28.8992 69.3114 30.8406L69.4047 32.3339C69.4561 33.1739 69.4981 33.3606 69.7267 33.3606C69.9815 33.3606 70.0833 32.7838 70.0833 32.2238V31.9438H70.3633V32.3339C70.3633 33.2672 70.1598 33.9206 69.1929 33.9206C68.2427 33.9206 67.7929 33.3774 67.7331 31.4267L67.6398 29.2548C67.6062 28.2282 67.3598 28.0667 66.8595 28.0667H66.0625V32.7838C66.0625 33.2504 66.2146 33.4371 66.5543 33.5304L66.9277 33.6238V33.8608H63.661L63.6965 33.5892ZM66.0886 27.7018H66.6486C67.5987 27.7018 68.0738 27.447 68.0738 25.1818C68.0738 22.9166 67.4457 22.4751 66.7671 22.4751H66.0886V27.7018ZM72.9019 33.4884H74.0723C75.5993 33.4884 75.8886 31.758 76.0911 29.9604H76.3459V33.8282H70.4921V33.6004L70.8654 33.5071C71.2042 33.4138 71.3573 33.2523 71.3573 32.7772V23.1882C71.3573 22.7215 71.2051 22.5348 70.8654 22.4583L70.4921 22.365V22.127H76.1854V25.9956H75.9306C75.7439 24.1803 75.3874 22.4676 74.0807 22.4676H72.9103V27.5748L73.4535 27.558C74.1815 27.5067 74.455 26.8795 74.6407 25.4114H74.8955V30.1284H74.6407C74.4877 28.2804 74.2002 27.9818 73.4274 27.9398L72.9019 27.923V33.4884ZM79.1973 33.4884H80.3677C81.8946 33.4884 82.183 31.758 82.3865 29.9604H82.6413V33.8282H76.7893V33.6004L77.1626 33.5071C77.5014 33.4138 77.6545 33.2523 77.6545 32.7772V23.1882C77.6545 22.7215 77.5014 22.5348 77.1626 22.4583L76.7893 22.365V22.127H82.4826V25.9956H82.2278C82.0411 24.1803 81.6846 22.4676 80.3779 22.4676H79.2075V27.5748L79.7507 27.558C80.4806 27.5067 80.7513 26.8795 80.9379 25.4114H81.2011V30.1284H80.9463C80.7942 28.2786 80.5049 27.9818 79.733 27.9398L79.2075 27.923L79.1973 33.4884ZM86.7815 32.7586C86.7815 33.284 86.9346 33.3858 87.2734 33.4716L87.7989 33.5902V33.8272H84.3035V33.5902L84.745 33.4968C85.0838 33.4035 85.2369 33.242 85.2369 32.767V22.4583H84.8635C83.8117 22.4583 83.387 24.1719 83.2769 25.9863H83.0221V22.1204H89.0113V25.9891H88.7565C88.6379 24.1738 88.2133 22.4611 87.1698 22.4611H86.7965L86.7815 32.7586ZM49.7823 15.925C49.7823 16.4504 49.9345 16.5522 50.2742 16.638L50.7997 16.7566V16.9936H47.3043V16.7566L47.7458 16.6632C48.0846 16.5699 48.2377 16.4084 48.2377 15.9334V5.64242H47.8643C46.8125 5.64242 46.3897 7.35602 46.2777 9.17042H46.0145V5.30362H52.0037V9.17229H51.7489C51.6303 7.35696 51.2057 5.64429 50.1622 5.64429H49.7889L49.7823 15.925ZM52.377 16.765L52.7503 16.6716C53.0891 16.5783 53.2422 16.4168 53.2422 15.9418V6.34709C53.2422 5.88042 53.0901 5.71896 52.7503 5.63402L52.377 5.54069V5.30176H55.6857V5.53976L55.2955 5.63309C54.9735 5.72642 54.7869 5.85336 54.7869 6.32842V10.7898H57.3489V6.34709C57.3489 5.88042 57.1622 5.73669 56.8402 5.65176L56.4501 5.55842V5.30176H59.7587V5.53976L59.3854 5.63309C59.0466 5.72642 58.8935 5.87109 58.8935 6.34616V15.8988C58.8935 16.3655 59.0457 16.5522 59.3854 16.6455L59.7587 16.7388V16.9759H56.4491V16.7388L56.8393 16.6455C57.1613 16.5522 57.3479 16.3655 57.3479 15.8988V11.2004H54.7878V15.9343C54.7878 16.401 54.9745 16.5876 55.2965 16.681L55.6866 16.7743V17.0114H52.3798L52.377 16.765ZM62.5503 16.6716H63.7207C65.2477 16.6716 65.5361 14.9412 65.7395 13.1436H65.9943V17.0114H60.1405V16.7743L60.5138 16.681C60.8526 16.5876 61.0057 16.4262 61.0057 15.9511V6.37229C61.0057 5.90562 60.8535 5.71896 60.5138 5.64242L60.1405 5.54909V5.30176H65.8338V9.17042H65.579C65.3923 7.35509 65.0358 5.64242 63.731 5.64242H62.5606V10.7496L63.1038 10.7328C63.8337 10.6815 64.1043 10.0543 64.291 8.58616H64.5458V13.3032H64.291C64.1389 11.4552 63.8495 11.1566 63.0777 11.1146L62.5522 11.0978L62.5503 16.6716ZM37.8973 47.9159C37.8973 49.7322 36.9807 50.6814 35.5639 50.6814C34.2918 50.6814 33.5451 49.6547 33.5619 48.5095C33.5806 47.6275 34.2153 47.186 34.7491 47.2542C35.1225 47.3046 35.4958 47.5762 35.4445 48.1707C35.3931 49.0107 34.4766 48.9855 34.443 49.511C34.4094 49.8339 34.8331 50.308 35.3763 50.308C36.3265 50.308 36.3265 49.0947 36.3265 48.1875V39.9583C36.3265 39.4916 36.1734 39.3479 35.801 39.263L35.3773 39.1696V38.9316H38.7205V39.1696L38.3471 39.263C38.0083 39.3563 37.8805 39.501 37.8805 39.976L37.8973 47.9159ZM41.8509 50.6972C39.8657 50.6972 38.8987 48.0167 38.8987 44.7584C38.8987 41.5179 39.8321 38.8374 41.8509 38.8374C43.8529 38.8374 44.8189 41.5179 44.8189 44.7584C44.8189 48.0251 43.9023 50.6972 41.8509 50.6972ZM41.8509 39.2172C41.0109 39.2172 40.5787 39.8958 40.5787 44.681C40.5787 49.6276 40.9689 50.3136 41.8509 50.3136C42.7329 50.3136 43.1407 49.6174 43.1407 44.6464C43.1407 39.8864 42.7338 39.2172 41.8509 39.2172ZM51.5389 50.365L51.9122 50.2716C52.251 50.1783 52.4041 50.0168 52.4041 49.5418V39.9751C52.4041 39.4151 52.1493 39.2116 51.5641 39.2116C50.8174 39.2116 50.6307 39.5514 50.6307 40.5183V47.8916C50.6307 49.7238 49.9774 50.7084 48.4094 50.7084C46.7807 50.7084 45.8306 49.7247 45.8306 47.943V39.9751C45.8306 39.5084 45.7121 39.347 45.3639 39.262L44.9906 39.1687V38.9204H48.3674V39.1584L47.9007 39.2518C47.5274 39.3451 47.3753 39.472 47.3753 39.9471V48.041C47.3753 49.6864 47.8419 50.1111 48.7155 50.1111C49.7422 50.1111 50.1575 49.5343 50.1575 47.8711V41.1184C50.1575 39.6932 50.1389 39.3451 49.5303 39.2182L49.2083 39.15V38.912H54.7738C56.2158 38.912 57.5551 39.8286 57.5551 41.7456C57.5551 43.2222 56.8598 44.2656 55.4514 44.639C56.9951 44.919 56.9951 45.6656 57.1482 47.607L57.2415 49.1003C57.2929 49.9403 57.3349 50.127 57.5635 50.127C57.8183 50.127 57.9201 49.5502 57.9201 48.9902V48.7102H58.2001V49.1003C58.2001 50.0336 57.9966 50.687 57.0297 50.687C56.0795 50.687 55.6297 50.1438 55.5699 48.1931L55.4766 46.0212C55.443 44.9946 55.1966 44.8331 54.6963 44.8331H53.8993V49.5502C53.8993 50.0168 54.0514 50.2035 54.3911 50.2968L54.7645 50.3902V50.6272H51.4978V50.3902L51.5389 50.365ZM53.931 44.4775H54.491C55.4411 44.4775 55.9162 44.2227 55.9162 41.9575C55.9162 39.6923 55.2881 39.2508 54.6095 39.2508H53.931V44.4775ZM58.5295 39.2172L58.2925 39.1491V38.9204H60.5138L63.5509 46.6232V41.0746C63.5509 39.8192 63.5845 39.3778 62.6857 39.2247L62.4057 39.1566V38.9186H64.9257V39.1566L64.6886 39.2247C63.9587 39.3946 64.0101 39.9882 64.0101 41.1847V50.6188H63.4669L59.6411 41.265V48.4591C59.6411 49.833 59.6411 50.2324 60.7266 50.3762V50.6132H58.2831V50.3762L58.5893 50.3248C59.2165 50.2054 59.1997 49.595 59.1997 48.3648V40.2448C58.9197 39.6512 58.7918 39.3283 58.5202 39.2182L58.5295 39.2172ZM73.461 50.2632H74.1395C75.5815 50.2632 76.0062 48.5487 76.1742 46.7352H76.429V50.603H67.777V50.3659L68.1345 50.3071C68.8643 50.1718 68.8811 49.9683 68.6777 48.95L68.3557 47.4231H66.2678L66.0466 48.5776C65.7918 49.8843 65.9281 50.2063 66.4367 50.308L66.7914 50.3762V50.6132H64.4329V50.3762L64.7129 50.2828C65.1795 50.1475 65.2897 49.8759 65.5277 48.7214L67.5978 38.8467H68.1074L70.2783 49.0443C70.4995 50.0962 70.5835 50.3164 71.1949 50.3164C71.7203 50.3164 71.9079 50.0364 71.9079 49.5362V39.9751C71.9079 39.5084 71.7558 39.347 71.4161 39.262L71.0427 39.1687V38.9316H74.4027V39.1864L73.9361 39.2798C73.5973 39.3479 73.4442 39.5 73.4442 39.9751L73.461 50.2632ZM66.335 47.0404H68.2689L67.2945 42.2151L66.335 47.0404Z" fill="#5462D1"/>
</g>
</svg>
