<svg width="112" height="43" viewBox="0 0 112 43" fill="none" xmlns="http://www.w3.org/2000/svg">
<g opacity="0.5" clip-path="url(#clip0_1007_4558)">
<path d="M45.5256 32.0559C45.5256 31.1475 46.1177 30.7417 46.9134 30.7417C47.339 30.7417 47.6536 30.8383 47.9311 30.9736V28.0551C47.5055 27.8425 46.9134 27.7266 46.3028 27.7266C43.6936 27.7266 42.1578 29.3308 42.1578 31.9786V32.2299H40.918V35.071H42.1578V41.8937H45.5256V35.071H47.8016V32.2299H45.5256V32.0559Z" fill="#5462D1"/>
<path d="M52.5391 41.8938V32.23H49.1528V41.8938H52.5391ZM52.7426 29.5048C52.7426 28.4611 51.9099 27.5527 50.8367 27.5527C49.8004 27.5527 48.9492 28.4418 48.9492 29.5048C48.9492 30.5678 49.8004 31.4569 50.8367 31.4569C51.9099 31.4569 52.7426 30.5485 52.7426 29.5048Z" fill="#5462D1"/>
<path d="M57.3082 36.7522C57.3082 35.7472 57.7893 35.1867 58.5295 35.1867C59.2697 35.1867 59.7138 35.7279 59.7138 36.7136V41.8934H63.1001V35.7472C63.1001 33.4086 61.8788 31.959 59.8803 31.959C58.7515 31.959 57.8263 32.4615 57.3082 33.4086V32.2296H53.9219V41.8934H57.3082V36.7522Z" fill="#5462D1"/>
<path d="M68.6371 32.0371C65.8382 32.0371 64.043 34.569 64.043 37.1009C64.043 39.9228 66.0119 42.1648 68.5985 42.1648C70.5288 42.1648 71.2623 40.9858 71.2623 40.9858V41.9135H74.5245V32.269H71.2623V33.1388C71.2623 33.1388 70.4323 32.0371 68.6371 32.0371ZM69.332 35.1489C70.6446 35.1489 71.3009 36.1732 71.3009 37.1009C71.3009 38.106 70.5867 39.0917 69.332 39.0917C68.3089 39.0917 67.3631 38.2413 67.3631 37.1396C67.3631 36.0379 68.1159 35.1489 69.332 35.1489Z" fill="#5462D1"/>
<path d="M79.5113 36.7522C79.5113 35.7472 79.9924 35.1867 80.7326 35.1867C81.4728 35.1867 81.9169 35.7279 81.9169 36.7136V41.8934H85.3032V35.7472C85.3032 33.4086 84.0819 31.959 82.0834 31.959C80.9547 31.959 80.0294 32.4615 79.5113 33.4086V32.2296H76.125V41.8934H79.5113V36.7522Z" fill="#5462D1"/>
<path d="M86.3047 37.0615C86.3047 40.1925 88.4512 42.164 91.2454 42.164C91.967 42.164 92.7442 42.0093 93.4659 41.6228V38.4144C92.9478 38.801 92.3926 38.9942 91.782 38.9942C90.5977 38.9942 89.728 38.2211 89.728 37.0615C89.728 35.9018 90.5977 35.1287 91.782 35.1287C92.3741 35.1287 92.9293 35.3027 93.4659 35.6699V32.4615C92.8183 32.1329 92.0226 31.959 91.3009 31.959C88.3957 31.959 86.3047 34.1043 86.3047 37.0615Z" fill="#5462D1"/>
<path d="M100.832 38.4917C100.48 39.0909 100.036 39.3421 99.296 39.3421C98.4077 39.3421 97.6676 38.7816 97.5935 37.9505H103.996C104.015 37.7766 104.033 37.5447 104.033 37.2354C104.033 34.0464 102.09 31.959 99.2034 31.959C96.4093 31.959 94.2812 34.143 94.2812 37.0615C94.2812 40.0959 96.3537 42.164 99.3145 42.164C101.405 42.164 102.978 41.2362 103.737 39.5547L100.832 38.4917ZM97.612 35.9211C97.6861 35.206 98.3152 34.6648 99.1849 34.6648C100.055 34.6648 100.684 35.1674 100.758 35.9211H97.612Z" fill="#5462D1"/>
<path d="M0 7.56152H6.66326L10.5432 17.488L14.4735 7.56152H20.9613L11.1921 31.0606H4.66322L7.33737 24.8337L0 7.56152Z" fill="#5462D1"/>
<path d="M27.7202 7.16602C22.7138 7.16602 19.5488 11.656 19.5488 16.1273C19.5488 21.1588 23.0188 25.1479 27.6252 25.1479C31.0614 25.1479 32.357 23.0544 32.357 23.0544V24.6852H38.1687V7.56128H32.357V9.118C32.357 9.118 30.9115 7.16602 27.7202 7.16602ZM28.9563 12.669C31.2663 12.669 32.4584 14.4968 32.4584 16.1461C32.4584 17.9221 31.1813 19.665 28.9563 19.665C27.1123 19.665 25.4459 18.158 25.4459 16.2217C25.4459 14.258 26.7863 12.669 28.9563 12.669Z" fill="#5462D1"/>
<path d="M40.1699 24.6852V0H46.2485V9.17734C46.2485 9.17734 47.6924 7.16818 50.7163 7.16818C54.4151 7.16818 56.5822 9.92412 56.5822 13.8622V24.6852H50.5481V15.3448C50.5481 14.0121 49.9132 12.7246 48.4752 12.7246C47.0114 12.7246 46.2485 14.0316 46.2485 15.3448V24.6852H40.1699Z" fill="#5462D1"/>
<path d="M66.946 7.16797C61.2127 7.16797 57.7988 11.5276 57.7988 16.1985C57.7988 21.514 61.9323 25.1479 66.9677 25.1479C71.8483 25.1479 76.119 21.6789 76.119 16.2876C76.119 10.3886 71.6475 7.16797 66.946 7.16797ZM67.0008 12.7193C69.026 12.7193 70.4272 14.4061 70.4272 16.2048C70.4272 17.739 69.1215 19.6313 67.0008 19.6313C65.0575 19.6313 63.5992 18.0725 63.5992 16.188C63.5992 14.3727 64.8117 12.7193 67.0008 12.7193Z" fill="#5462D1"/>
<path d="M86.2448 7.16797C80.5116 7.16797 77.0977 11.5276 77.0977 16.1985C77.0977 21.514 81.2311 25.1479 86.2666 25.1479C91.1471 25.1479 95.4178 21.6789 95.4178 16.2876C95.4178 10.3886 90.9463 7.16797 86.2448 7.16797ZM86.2996 12.7193C88.3248 12.7193 89.7261 14.4061 89.7261 16.2048C89.7261 17.739 88.4203 19.6313 86.2996 19.6313C84.3564 19.6313 82.898 18.0725 82.898 16.188C82.898 14.3727 84.1105 12.7193 86.2996 12.7193Z" fill="#5462D1"/>
<path d="M100.216 25.0485C102.445 25.0485 104.253 23.2413 104.253 21.012C104.253 18.7828 102.445 16.9756 100.216 16.9756C97.9869 16.9756 96.1797 18.7828 96.1797 21.012C96.1797 23.2413 97.9869 25.0485 100.216 25.0485Z" fill="#5462D1"/>
<path d="M105.579 15.4931H98.3125L104.762 0H112.001L105.579 15.4931Z" fill="#5462D1"/>
</g>
<defs>
<clipPath id="clip0_1007_4558">
<rect width="112" height="42.1645" fill="white"/>
</clipPath>
</defs>
</svg>
