<?xml version="1.0" encoding="UTF-8" standalone="yes"?><svg xmlns="http://www.w3.org/2000/svg" version="1.2" viewBox="0 0 313.63 313.63" baseProfile="tiny-ps"><title>homebuyer-com-logo</title><g><g><g><defs><rect id="SVGID_1_" x="81.97" y="54.76" width="149.68" height="204.1"></rect></defs><g><g><defs><rect id="SVGID_00000133516738920696020350000007794548454379698103_" x="81.97" y="54.76" width="149.68" height="204.1"></rect></defs><g><path d="M85.32,179l68.14-47.09c0.998-0.641,2.164-0.971,3.35-0.95v-10.19        c0.01-0.193,0.01-0.387,0-0.58v-63c0-2.26-1.53-3.06-3.39-1.77l-68,47c-2.007,1.551-3.253,3.889-3.42,6.42v76.53        C82.141,182.869,83.351,180.549,85.32,179" fill="#F4867A"></path><path d="M82,254.74c-0.022,2.24,1.761,4.081,4,4.13C83.77,258.8,81.999,256.971,82,254.74" fill="#1D286D"></path><path d="M156.81,258.86h70.77c2.246-0.005,4.065-1.824,4.07-4.07v-69.42        c-0.145-2.507-1.366-4.83-3.35-6.37l-68.14-47.09c-0.998-0.641-2.164-0.971-3.35-0.95V258.86z" fill="#009BFF"></path><path d="M156.81,130.94c-1.186-0.021-2.352,0.309-3.35,0.95L85.32,179        c-1.969,1.549-3.179,3.869-3.32,6.37v69.37c0,2.275,1.845,4.12,4.12,4.12h70.72L156.81,130.94z" fill="#5462D1"></path></g></g></g></g><rect width="313.63" height="313.63" fill="none"></rect></g></g></svg>