<svg xmlns="http://www.w3.org/2000/svg" xmlns:xlink="http://www.w3.org/1999/xlink" viewBox="0 0 313.63 313.63"><defs><style>.cls-1{fill:none;}.cls-2{clip-path:url(#clip-path);}.cls-3{fill:#f4867a;}.cls-4{fill:#1d286d;}.cls-5{fill:#009bff;}.cls-6{fill:#5462d1;}</style><clipPath id="clip-path"><rect class="cls-1" x="81.97" y="54.76" width="149.68" height="204.1"/></clipPath></defs><g id="Layer_2" data-name="Layer 2"><g id="Layer_1-2" data-name="Layer 1"><g id="Logomark"><g class="cls-2"><g class="cls-2"><path class="cls-3" d="M85.32,179l68.14-47.09a6,6,0,0,1,3.35-.95V120.77a5.65,5.65,0,0,0,0-.58v-63c0-2.26-1.53-3.06-3.39-1.77l-68,47A8.85,8.85,0,0,0,82,108.84v76.53A8.73,8.73,0,0,1,85.32,179"/><path class="cls-4" d="M82,254.74v0A4.09,4.09,0,0,0,86,258.87h0A4.13,4.13,0,0,1,82,254.74"/><path class="cls-5" d="M156.81,258.86h70.77a4.08,4.08,0,0,0,4.07-4.07V185.37A8.7,8.7,0,0,0,228.3,179l-68.14-47.09a6,6,0,0,0-3.35-.95V258.86Z"/><path class="cls-6" d="M156.81,130.94a6,6,0,0,0-3.35.95L85.32,179A8.73,8.73,0,0,0,82,185.37v69.37a4.12,4.12,0,0,0,4.12,4.12h70.72Z"/></g></g></g><rect class="cls-1" width="313.63" height="313.63"/></g></g></svg>