<svg width="502" height="94" viewBox="0 0 502 94" fill="none" xmlns="http://www.w3.org/2000/svg">
<path d="M1.30287 48.7284L27.6318 30.5425C28.0118 30.271 28.4461 30.1625 28.9347 30.1625V26.5253C28.9347 26.471 28.9347 26.3624 28.9347 26.3081V1.93352C28.9347 1.06494 28.3375 0.739223 27.6318 1.2278L1.30287 19.4138C0.597151 19.9023 0 21.0424 0 21.9109V26.5253V48.6742V51.2256C0 50.357 0.597151 49.217 1.30287 48.7284Z" fill="#F4867A"/>
<path d="M1.57431 78.6174C0.705724 78.6174 0 77.9117 0 77.0431V77.2602C0 78.1288 0.705724 78.8345 1.57431 78.8345H27.3061C27.6318 78.8345 27.9032 78.726 28.1747 78.5631C27.8489 78.5631 27.5775 78.5631 27.3061 78.5631H1.57431V78.6174Z" fill="#F4867A"/>
<path d="M56.566 48.566L30.2371 30.38C29.8571 30.1086 29.4228 30 28.9342 30V78.0978C28.9342 78.6407 28.6628 79.1292 28.2285 79.455C28.9885 79.455 29.9114 79.455 30.5085 79.455H56.2946C57.1632 79.455 57.8689 78.7492 57.8689 77.8806V51.0631C57.8146 50.1946 57.2718 49.0545 56.566 48.566Z" fill="#009BFF"/>
<path d="M28.9347 78.0978V30C28.4461 30 28.0118 30.1086 27.6318 30.38L1.30287 48.566C0.597151 49.0545 0 50.1946 0 51.0089V77.8264C0 78.6949 0.705724 79.4007 1.57431 79.4007H27.3604C27.6318 79.4007 27.9032 79.4007 28.229 79.4007C28.609 79.1835 28.9347 78.6949 28.9347 78.0978Z" fill="#5462D1"/>
<path d="M113.156 47.6937V65.4195H106.947V48.3277C106.947 43.9383 104.419 41.6288 100.506 41.6288C96.4227 41.6288 93.2056 44.0548 93.2056 49.945V65.4195H87V24.9866H93.2088V40.2314C95.1056 37.2297 98.21 35.7838 102.12 35.7838C108.557 35.7967 113.156 40.1861 113.156 47.6937Z" fill="#5462D1"/>
<path d="M118.208 50.9838C118.208 42.3797 124.994 35.7972 133.386 35.7972C141.839 35.7972 148.563 42.3797 148.563 50.9838C148.563 59.5298 141.839 66.1866 133.386 66.1866C131.391 66.2047 129.413 65.8241 127.566 65.067C125.719 64.3099 124.041 63.1914 122.628 61.7767C121.216 60.3619 120.098 58.6791 119.339 56.8262C118.58 54.9733 118.196 52.9874 118.208 50.9838ZM142.361 50.9838C142.361 45.7308 138.451 41.8622 133.392 41.8622C128.333 41.8622 124.424 45.7437 124.424 50.9838C124.424 56.224 128.33 60.1249 133.386 60.1249C138.442 60.1249 142.354 56.2434 142.354 50.9838H142.361Z" fill="#5462D1"/>
<path d="M196.447 47.5098V65.4103H190.238V47.9238C190.238 43.8805 188.054 41.6292 184.66 41.6292C180.982 41.6292 178.393 43.997 178.393 49.2533V65.4265H172.184V47.9238C172.184 43.8805 170.175 41.6292 166.781 41.6292C163.274 41.6292 160.401 43.997 160.401 49.2533V65.4265H154.192V36.5476H160.401V40.0119C162.24 37.1849 165.058 35.8069 168.623 35.8069C172.358 35.8069 175.118 37.4824 176.786 40.371C178.683 37.366 181.73 35.8069 185.581 35.8069C192.093 35.7972 196.447 40.303 196.447 47.5098Z" fill="#5462D1"/>
<path d="M217.192 60.4483C220.641 60.4483 223.227 58.8892 224.599 56.8676L229.716 59.8726C227.072 63.7962 222.757 66.1639 217.124 66.1639C207.64 66.1639 201.486 59.6397 201.486 50.9612C201.486 42.4152 207.64 35.7745 216.664 35.7745C225.23 35.7745 231.094 42.7064 231.094 51.0194C231.077 51.8863 230.999 52.7509 230.862 53.6071H207.998C208.97 58.1453 212.593 60.4483 217.192 60.4483ZM224.837 48.5546C223.974 43.5862 220.354 41.4384 216.616 41.4384C211.959 41.4384 208.797 44.2072 207.937 48.5546H224.837Z" fill="#5462D1"/>
<path d="M267.143 50.9839C267.143 59.5298 260.647 66.1867 252.832 66.1867C248.346 66.1867 244.955 64.3397 242.768 61.2797V65.4362H236.562V25.0033H242.768V40.6525C244.955 37.6475 248.346 35.8005 252.832 35.8005C260.647 35.7973 267.143 42.3798 267.143 50.9839ZM260.937 50.9839C260.937 45.6144 257.028 41.7458 251.853 41.7458C246.678 41.7458 242.768 45.6273 242.768 50.9839C242.768 56.3404 246.678 60.222 251.853 60.222C257.028 60.222 260.937 56.3534 260.937 50.9839Z" fill="#5462D1"/>
<path d="M298.365 36.5476V65.42H292.156V61.7422C290.259 64.7439 287.155 66.1866 283.245 66.1866C276.804 66.1866 272.209 61.7972 272.209 54.2928V36.5476H278.398V53.6556C278.398 58.045 280.93 60.3545 284.839 60.3545C288.919 60.3545 292.14 57.9286 292.14 52.0415V36.5476H298.365Z" fill="#5462D1"/>
<path d="M331.576 36.5476L320.54 66.3451C317.838 73.678 313.133 77.3719 306.512 76.9709V71.1485C310.537 71.3782 312.721 69.2983 314.157 65.4879L314.447 64.9121L302.258 36.5573H309.043L317.609 57.521L324.968 36.5573L331.576 36.5476Z" fill="#5462D1"/>
<path d="M348.419 60.4483C351.868 60.4483 354.453 58.8892 355.825 56.8676L360.942 59.8726C358.295 63.7962 353.983 66.1639 348.351 66.1639C338.864 66.1639 332.713 59.6397 332.713 50.9612C332.713 42.4152 338.864 35.7745 347.89 35.7745C356.457 35.7745 362.321 42.7064 362.321 51.0194C362.303 51.8863 362.226 52.7509 362.089 53.6071H339.224C340.197 58.1453 343.817 60.4483 348.419 60.4483ZM356.064 48.5546C355.201 43.5862 351.581 41.4384 347.842 41.4384C343.185 41.4384 340.023 44.2072 339.147 48.5546H356.064Z" fill="#5462D1"/>
<path d="M382.847 36.0269V42.784C378.763 42.4961 373.994 44.4013 373.994 50.8706V65.4265H367.785V36.5476H373.994V41.3996C375.717 37.4824 379.224 36.0269 382.847 36.0269Z" fill="#5462D1"/>
<path d="M386.28 61.2247C386.28 60.118 386.718 59.0567 387.497 58.2742C388.276 57.4916 389.333 57.052 390.435 57.052C391.536 57.052 392.593 57.4916 393.372 58.2742C394.151 59.0567 394.589 60.118 394.589 61.2247C394.589 62.3313 394.151 63.3927 393.372 64.1752C392.593 64.9577 391.536 65.3974 390.435 65.3974C389.333 65.3974 388.276 64.9577 387.497 64.1752C386.718 63.3927 386.28 62.3313 386.28 61.2247Z" fill="#5462D1"/>
<path d="M397.188 50.8189C397.188 42.5286 403.445 36.1854 411.811 36.1854C417.241 36.1854 421.949 39.0222 424.164 43.3631L419.012 46.3681C417.795 43.7512 415.08 42.0822 411.756 42.0822C406.881 42.0822 403.168 45.8117 403.168 50.8157C403.168 55.8197 406.881 59.5492 411.756 59.5492C415.08 59.5492 417.795 57.8251 419.125 55.2633L424.277 58.2133C421.949 62.6092 417.241 65.4459 411.811 65.4459C403.445 65.4524 397.188 59.0543 397.188 50.8189Z" fill="#5462D1"/>
<path d="M426.602 50.8189C426.602 42.5286 433.139 36.1854 441.228 36.1854C449.373 36.1854 455.852 42.5286 455.852 50.8189C455.795 54.6772 454.229 58.3581 451.493 61.0663C448.756 63.7745 445.068 65.2926 441.227 65.2926C437.385 65.2926 433.698 63.7745 430.961 61.0663C428.225 58.3581 426.659 54.6772 426.602 50.8189ZM449.869 50.8189C449.869 45.7567 446.104 42.0272 441.228 42.0272C436.353 42.0272 432.585 45.7567 432.585 50.8189C432.585 55.8811 436.353 59.6107 441.228 59.6107C446.104 59.6107 449.869 55.8844 449.869 50.8189Z" fill="#5462D1"/>
<path d="M501.999 47.4807V64.731H496.016V47.8689C496.016 43.9873 493.91 41.8039 490.641 41.8039C487.099 41.8039 484.603 44.0876 484.603 49.1498V64.731H478.62V47.8689C478.62 43.9873 476.687 41.8039 473.412 41.8039C470.034 41.8039 467.265 44.0876 467.265 49.1498V64.731H461.281V36.9132H467.265V40.2513C469.036 37.5245 471.751 36.1886 475.187 36.1886C478.787 36.1886 481.447 37.8059 483.054 40.5845C484.88 37.6895 487.817 36.1886 491.53 36.1886C497.787 36.1886 501.999 40.5262 501.999 47.4807Z" fill="#5462D1"/>
</svg>
