<svg width="34" height="25" viewBox="0 0 34 25" fill="none" xmlns="http://www.w3.org/2000/svg">
<path d="M2.36001 24.12C1.70668 24.12 1.19334 23.8866 0.820009 23.42C0.446676 22.9533 0.26001 22.44 0.26001 21.88C0.26001 21.04 0.446676 20.2 0.820009 19.36L6.84001 3.53998C7.30668 2.51331 7.77334 1.76664 8.24001 1.29998C8.80001 0.83331 9.54668 0.599976 10.48 0.599976H12.86C13.6067 0.599976 14.1667 0.879974 14.54 1.43997C14.82 1.81331 14.96 2.23331 14.96 2.69997C14.96 2.97998 14.9133 3.25998 14.82 3.53998L12.16 20.34C11.88 22.86 10.7133 24.12 8.66001 24.12H2.36001ZM21.12 24.12C20.4667 24.12 19.9533 23.8866 19.58 23.42C19.2067 22.9533 19.02 22.44 19.02 21.88C19.02 21.04 19.2067 20.2 19.58 19.36L25.6 3.53998C26.0667 2.51331 26.5333 1.76664 27 1.29998C27.56 0.83331 28.3067 0.599976 29.24 0.599976H31.62C32.3667 0.599976 32.9267 0.879974 33.3 1.43997C33.58 1.81331 33.72 2.23331 33.72 2.69997C33.72 2.97998 33.6733 3.25998 33.58 3.53998L30.92 20.34C30.64 22.86 29.4733 24.12 27.42 24.12H21.12Z" fill="#5462D1"/>
</svg>
