<svg width="103" height="83" viewBox="0 0 103 83" fill="none" xmlns="http://www.w3.org/2000/svg">
<path d="M92.6665 67.125L101 72.3333L92.6665 77.5417V67.125Z" fill="white"/>
<path d="M1 72.3333H94.75" stroke="white" stroke-width="2" stroke-miterlimit="10"/>
<path d="M1 61.9876L13.4458 61.9897L21.7437 59.0459L25.8917 59.048L30.0396 61.9917L50.7833 56.1084H59.0792L71.525 61.998L75.6729 62.0001L92.6667 55.6667H96.8333" stroke="white" stroke-width="2" stroke-miterlimit="10"/>
<path d="M1.00195 53.1562L13.4478 53.1583L30.0436 47.2729H34.1915L38.3395 47.275H42.4895L63.2332 35.5021L67.3832 35.5042L77.7436 41.0833H81.8915L92.6853 26.5H96.8332" stroke="white" stroke-width="2" stroke-miterlimit="10"/>
<path d="M1.00391 44.3229L9.30182 44.325L21.7477 36.75H25.8977L30.0456 36.7521H34.1935L46.6414 21.6H50.7914L67.3893 2.65833L71.5372 2.66042L79.8143 10.2396L83.9622 10.2417L92.6664 1.5L96.8331 1.50208" stroke="white" stroke-width="2" stroke-miterlimit="10"/>
<path d="M5.16667 34.8333H1" stroke="white" stroke-width="2" stroke-miterlimit="10"/>
<path d="M5.16667 26.5H1" stroke="white" stroke-width="2" stroke-miterlimit="10"/>
<path d="M5.16667 18.1667H1" stroke="white" stroke-width="2" stroke-miterlimit="10"/>
<path d="M5.16667 9.83325H1" stroke="white" stroke-width="2" stroke-miterlimit="10"/>
<path d="M5.16667 1.5H1" stroke="white" stroke-width="2" stroke-miterlimit="10"/>
<path d="M3.08333 82.7499C4.23393 82.7499 5.16667 81.8172 5.16667 80.6666C5.16667 79.516 4.23393 78.5833 3.08333 78.5833C1.93274 78.5833 1 79.516 1 80.6666C1 81.8172 1.93274 82.7499 3.08333 82.7499Z" fill="white"/>
<path d="M23.9168 82.7499C25.0674 82.7499 26.0002 81.8172 26.0002 80.6666C26.0002 79.516 25.0674 78.5833 23.9168 78.5833C22.7662 78.5833 21.8335 79.516 21.8335 80.6666C21.8335 81.8172 22.7662 82.7499 23.9168 82.7499Z" fill="white"/>
<path d="M44.7498 82.7499C45.9004 82.7499 46.8332 81.8172 46.8332 80.6666C46.8332 79.516 45.9004 78.5833 44.7498 78.5833C43.5992 78.5833 42.6665 79.516 42.6665 80.6666C42.6665 81.8172 43.5992 82.7499 44.7498 82.7499Z" fill="white"/>
<path d="M65.5833 82.7499C66.7339 82.7499 67.6667 81.8172 67.6667 80.6666C67.6667 79.516 66.7339 78.5833 65.5833 78.5833C64.4327 78.5833 63.5 79.516 63.5 80.6666C63.5 81.8172 64.4327 82.7499 65.5833 82.7499Z" fill="white"/>
<path d="M86.4168 82.7499C87.5674 82.7499 88.5002 81.8172 88.5002 80.6666C88.5002 79.516 87.5674 78.5833 86.4168 78.5833C85.2662 78.5833 84.3335 79.516 84.3335 80.6666C84.3335 81.8172 85.2662 82.7499 86.4168 82.7499Z" fill="white"/>
<circle cx="96.5" cy="55.5" r="5.5" stroke="white" stroke-width="2"/>
</svg>
